#define flag_width 16
#define flag_height 16
static unsigned char flag_bits[] = {
   0x00, 0x00, 0x00, 0x00, 0x00, 0x00, 0xf8, 0x0f, 0xf8, 0x0f, 0xf8, 0x0f,
   0xf8, 0x0f, 0xf8, 0x0f, 0x18, 0x00, 0x18, 0x00, 0x18, 0x00, 0x18, 0x00,
   0x18, 0x00, 0x00, 0x00, 0x00, 0x00, 0x00, 0x00};
